<svg version="1.1" id="Capa_1" xmlns="http://www.w3.org/2000/svg" x="0" y="0" viewBox="0 0 400 176" xml:space="preserve"><style>.st0{fill:#fff}</style><path class="st0" d="M118.5 133.9s1.1.6 1.5.7c.5.1 1.4.5 1.4.5l-.3.2s-.9.1-1.6.1-1.6-.2-1.6-.2l-1.2-.3.2-.7.3-.7-.7-.2H49V39.1h-3.7v97.8h97.8v-3.7h-25.3l.7.7z"/><path class="st0" d="M117.9 125.7c-.2.4 0 1.6-.3 1.7s.4 1.2.4 1.2l-.2.7h25.4v-3.7l-25.3.1zM53.6 58.3c.1-.2.5-.6.8-.7.2-.1.4-.6.7-.8.3-.1.5-.5.5-.5s-.4-.1-.7 0-.5.1-.5.1-.2-.3-.2-.4c0-.2-.6-.1-.6-.1l-.2-.3s.1-.4.4-.6c.4-.2 0-.5-.2-.5-.2.1-.7.3-.6.2.1 0 0-.1 0-.1v4.1l.2-.1c0 .1.4-.1.4-.3zm.2-6.8c.2-.1.6-.1.6-.1l.5-.2s.2-.2.7 0v-.5s.5-.6.7-.8-.3-.4-.3-.4l-.8.3-.8.1-.5-.2v-.5c0-.2.5-.5.5-.5v-.5c0-.2.3-.5.3-.5l.4.1.2-.4c.2-.4.4-.2.4-.2l.4.4.2.3h.3v-2.5c-.2-.1-.3-.1-.3-.1s-.1-.4.1-.5c.1-.1.2-.1.2-.2V39H53v13.4c0-.1.1-.1.1-.2.3-.2.5-.7.7-.7zm59 77.8c-.1-.3-.4-1-.4-1s.3-.9 0-1.2c-.3-.3.1-1.3.1-1.3v-.2H56.7V56.8c-.1.1-.2.1-.2.2-.2.1-.7.2-1.2.4-.4.2-.8.7-1.1 1.1-.4.4-.4.4-.9.5-.1 0-.1.1-.2.1v70.2h59.7z"/><path class="st0" d="M111.5 121.7c-.2-.4-.3-.8-.3-1 0-.3 0-1.1.3-1.5.1-.1.1-.7.1-1.3H64.3v-62l-.1-.1s-1.3-.6-1.6-.8c-.2-.2-.8-.4-1.1-.5-.3-.2-.4-.2-.8.1-.1 0-.1.1-.2.1v67h51zM61 42.4c-.2 0 .2-.3.5-.4.3-.2.4.2.4.2l.6-.3c.2-.1.2.2.2.2.1 0 .2.1.3.1.2.1.3.2.3.3v.3c0 .1.1.2.2.2.1.1.3.2.4.3.1.1.1.1.2.1v-4.5h-3.7v3.6c.3.1.8-.1.6-.1zm82.2 75.6h-22l.1.1c.2.3.6.4.7.8s.1.6-.2 1.1c-.4.4-1.6.7-2 .8-.3 0-.5.6-.6.9h24V118zM69 45.8s.3.2.4.2l.1.1h-.1c.1.1.1.2.2.3s.2.1.4.1c0-.1 0-.2.1-.2 0-.1.1-.2.1-.2 0-.1.1-.3.1-.4 0-.1.1-.2.1-.2 0-.1 0-.1.1-.1.3 0 .4.3.7.1.1 0 .1-.1.3-.1.1 0 .2 0 .3-.1v-6.1h-3.7v6.1c.1.1.3.2.4.3.2 0 .4.1.5.2zm74.2 64.6H128c-.3.2-.5.3-.6.4-.2.3-.2 1-.2 1.3s.1 1 .1 1-.1.5-.2.9h16.2v-3.6h-.1zM71.1 46.6c.2 0 .4 0 .6-.2 0 0 .1 0 .2-.1v-.5c-.1.1-.2.2-.3.2-.1 0-.2 0-.3.1-.2.1-.4.4-.2.5z"/><path class="st0" d="M111 114.1c-.1-.2-.1-.5-.1-.7 0-.5 0-1 .2-1.7.1-.3.1-.8 0-1.3H71.8V75.5c-.1-.3-.4-.5-.4-.5l-.4-.3s-.6-.4-.7-.5c-.1-.2-.6-.6-.7-.8-.1-.2-.1-.8-.1-.8s-.4-.4-.5-.6-.5-.6-.4-.8v-.7s0-.8-.1-1c0-.2.1-.5.1-.8.1-.3.3-1.9.6-2.1.3-.3.4-.6.4-.6l.3-.5s-.1-.8-.2-.9c-.2-.2-.7-1-1-1.2-.2-.1-.4-1-.6-1.4v52.2l42.9-.1z"/><path class="st0" d="M75.8 79.9l1.4 2.6v.9L75.7 82v24.6h35c-.1-.6-1-.9-1.5-1.1s-1.6-.5-2-.9-1.3-1.3-1.4-1.6H79.5V82.3l-.9-.4-.5-.3.1-.4v-.5s-.5-.4-.6-.6-.8-.8-.8-.8-.5-.4-.6-.6-.2-.4-.2-.6c0 0 0-.1-.1-.1v1.5c-.1.2 0 .3-.1.4zm.6-33.6v.2c.1.2.4.2.6.3h.2c.1 0 .1-.1.2 0l.1.1c.1 0 .1.1.2.1.1.1.2.1.2.2v-.1l.1.1h-.1c.1.2.2.3.5.2.1 0 .1-.1.2-.1.1-.1.1 0 .1.1.1.1.2.2.1.3 0 .1-.2.1-.2.1-.1.1-.1.2-.2.2-.1.1-.2.1-.4.1 0 .1 0 .2.1.3 0 .1.1.1.1.1s0 .1.1.1c.1.1.1.1.2.1s.1.1.2.1c.1.1.4 0 .5 0h.1v-9.5h-3.7v7h.2c.3-.2.5-.1.6 0zm66.8 56.6h-9.5s0 1.7-.3 2.4c-.1.3-.3.8-.5 1.3h10.2v-3.7h.1zm0-4v-3.7h-14.8l1.4.5 1.9.2s1.1.3 1.4.3c.4.1.8.7 1 1.1.2.3 1.1.2 1.4.4.3.2.7.9.7.9s0 .1-.1.2l7.1.1z"/><path class="st0" d="M87 98.9h15.8c-.3-.3-.5-.5-.6-.7-.2-.4-.4-1-.6-1.2s0-1.1 0-1.1v-.7H87v-9.4h-.6l-1.7-.3s-.5-1.3-.8-1.6c-.2-.1-.5-.3-.6-.3v15.3H87zm-.7-40.8c.2 0 .3 0 .5.1.1 0 .1.1.2.1v-4.8l-.1.1c-.4.3-.7.6-.9 1v-.1c-.1 0-.2.2-.2.3-.1.2-.4.4-.5.6-.1.2 0 .4-.2.6-.1.2-.1.3-.1.5 0 .1.1.2.2.2s.2 0 .2-.1c.1 0 .1-.1.2-.1s.1.2.1.3c.1.1.2.1.2.2 0 0 0 .3.1.3 0 0 0 .1-.1.1.2.1.1.3 0 .5.1.1.2.2.4.2zm-2.8-9.6h.2c.3.1.5.2.8.3.1 0 .2.1.3.1.2.1.4.1.6.1.2-.1.3-.3.5-.4.1-.1.3-.3.5-.3 0 0 0 .1-.1.2s-.1.3-.2.4v.2c.2-.1.3.2.2.3 0 .1-.3.3-.2.5-.1.1 0 .2.1.2.2 0 .3-.2.4-.4.1-.1.2-.3.3-.5 0-.1 0-.1.1-.1v-9.8h-3.7v9.5c.1-.3.2-.3.2-.3zm1 33.3l.4.8 1-1s.4-.9.6-1.2c.1-.2.3-.5.6-.6V75l-.4.1s-.3.2-.4.3c-.1.1 0 .1-.2.2s-.3.2-.3.2l-.5-.1-.8-.1-.3.2s0-.1-.8.4v5.4c.2.2.4.4.6.4.2 0 .5-.2.5-.2zm30.5 6.5l1 .2 1.1.6 1.1.7 1.2.1h.7l1.6.5s1.2.5 1.6.9v.1h20v-3.7h-28.5c.1 0 .3.1.4.1.8.4-.2.5-.2.5z"/><path class="st0" d="M102.4 91.3c.2-.8-1.8-1-1.9-1.2 0 0-.6-.1-.8-.3-.2-.2-1.1-.9-1.1-.9-.5-.1-2 .2-2 .2l-.3.5s-.9-.1-1.2-.1c-.3-.1-.7-.4-.7-.4h-1l-.5-.3-1-.1-.7-.2-.2-.7-.1-.1v3.7l11.5-.1zm6.1-3.3c.3 0 .5-.3.5-.3s.1 0 .1-.1H108l.1.2c-.1 0 .2.2.4.2zm-9.1-.1l.5.2.6.4h.6l1.8-.9h-4l.5.3z"/><path class="st0" d="M92 83.9s.4.1.7.1c.3 0 .1.4.1.4l.1.9v.7c.1.3-.2 1.1-.2 1.1s.2.1.4.4c.2.3.4.3.9.5s.7.4.7.4h1.1c.3 0 .7-.5.7-.5l.9-.1h-2.9V68.1c-.1.1-.2.1-.2.1-.2 0-.4.3-.5.3s-.2.2-.2.3c-.1.1-.3.2-.4.2s-.3 0-.4.1-.2.3-.2.4-.1.4-.1.4c0 .1.1.3.2.5 0 .2.1.3.1.3s-.2.7-.3.7c-.1 0-.4.3-.4.3s-.5.6-.7.7c-.1 0-.4.3-.6.6v10.6l.2-.1 1 .4zm-1-21.7c0 .1 0 .1.2.1s.3-.1.4-.1c.2-.2.3-.4.5-.5.2-.2.6-.4.4-.7-.1-.1-.2-.2-.2-.3s0-.2-.1-.3c0-.4-.2-.4-.3-.6 0-.1 0-.1.1-.2s.2-.2.4-.3c.1 0 .2-.1.2-.1v-.1l.2-.2c.1-.1.2-.1.2-.2.1-.1.1-.2.2-.3.2-.2.4-.6.2-.9-.1-.1-.2-.3-.3-.4 0-.1-.1-.1-.1-.2s.1-.2.1-.3c-.1-.1-.3-.1-.3-.1 0-.1.2-.3.3-.3 0-.1 0-.2.1-.3l.1-.1c.1-.1 0-.2.1-.2 0-.1.1-.1.1-.2s-.1-.1-.1-.2c-.2-.2-.3-.3-.2-.5.1-.2.2-.4.4-.5.1-.1.1-.1.2-.3 0 0 0-.1.1-.2s.3-.1.4-.1.1 0 .2.1c0 0 0 .1.1.1h.1V39.1H91v9.8l.1-.1c.2-.2.2-.4.3-.6.1-.1.1-.3.2-.5 0-.1.1-.2.2-.3s.2-.1.2-.1c.1-.1 0-.1-.1-.2 0-.1 0-.1.1-.2 0-.1.1-.2.2-.2s.1.1.2.2h.2c.1 0 .1.1.2.2s.3.1.4.2c0 .1-.1.3-.2.3-.1.1-.1.3-.2.4-.1 0-.2.1-.2.2 0 0 .1.1.2.1s.2.1.3.2c0 .1-.1.2-.1.3-.1.1-.1.2-.3.3-.2.1-.1.4-.3.5-.1 0-.4 0-.5-.1-.1 0-.1 0-.1-.1-.2-.1-.3.1-.4.2h-.2v12.2s.1 0 .1.1c-.3.1-.3.3-.3.3zm52.2 21.6v-3.7h-41V60.6c-.2.1-.3.2-.4.3-.2.1-.7.5-1.2.6-.6.1-1.4.1-1.4.1l-.8.2v2.3c.3.1.4.3.5.4s.2.3.3.4c.1.1.6-.3.6-.3l.3-.2.1.2s0 .1-.2.2c-.1 0-.1.2-.4.3-.2.2-.4.3-.5.4s-.5.1-.6.1h-.1v18l44.8.2zM99.3 55.1l.4-.1s.1.2 0 .5c0 .3 0 .7.1.7 0 .1.1.1.2.1.2 0 .3.3.5.3.2.1.3.3.3.4 0 .2-.2.2-.2.6-.1.3.4.3.6.4.2.1.9.1.9.2 0 0 .1.2.1.3V39.1h-3.7v17.3c0-.2.3-.7.4-.8.1-.2.4-.5.4-.5zm1.6 5.6s.1-.2.1-.3 0-.2.1-.3.3-.1.5-.1c.1 0 .4-.1.6-.2v-1.1s0 .1-.1.1c-.2 0-.2.4-.4.5-.2.1-.7.2-.8.4-.2.2.1.3.1.4 0 .1-.1.1-.2.3-.2.2.1.3.1.3z"/><path class="st0" d="M109.8 72.5V39.1h-3.7v37.1h37.1v-3.7z"/><path class="st0" d="M143.2 68.6v-3.7h-25.8V39.1h-3.7v29.4z"/><path class="st0" d="M143.2 61v-3.7H125V39.1h-3.7v21.8z"/><path class="st0" d="M143.2 53.4v-3.7h-10.6V39.1h-3.7v14.3z"/><path class="st0" d="M143.2 45.8v-3.7h-3v-3h-3.7v6.7zM87 53v.4c.1-.1.1-.1.1-.2s-.1-.1-.1-.2zm70.4 80.3V84h8.1v42.4h20.9v6.9h-29zm67.7-.1l-4.9-13.6h-18.6l-4.8 13.6h-8.4L206.7 84h8.7l18.2 49.3h-8.5v-.1zm-6.9-20.6l-4.6-13.3c-.3-.9-.8-2.3-1.4-4.2-.6-1.9-1-3.3-1.2-4.2-.6 2.7-1.5 5.7-2.6 9l-4.4 12.7h14.2zm25.5 20.7h-8V84h27.8v6.8h-19.8v15.4h18.6v6.8h-18.6v20.3zm27.7 0V84h8.1v49.3h-8.1zm47-13.7c0 4.3-1.5 7.6-4.6 10-3.1 2.4-7.3 3.6-12.7 3.6-5.4 0-9.9-.8-13.3-2.5v-7.4c2.2 1 4.5 1.8 7 2.4s4.7.9 6.9.9c3.1 0 5.4-.6 6.9-1.8 1.5-1.2 2.2-2.8 2.2-4.8 0-1.8-.7-3.3-2-4.6-1.4-1.2-4.2-2.7-8.4-4.4-4.4-1.8-7.4-3.8-9.2-6.1-1.8-2.3-2.7-5-2.7-8.2 0-4 1.4-7.1 4.3-9.4 2.8-2.3 6.7-3.4 11.4-3.4 4.6 0 9.2 1 13.7 3l-2.5 6.4c-4.3-1.8-8.1-2.7-11.4-2.7-2.5 0-4.5.6-5.8 1.7s-2 2.6-2 4.4c0 1.2.3 2.3.8 3.2.5.9 1.4 1.7 2.6 2.5s3.4 1.8 6.5 3.1c3.5 1.5 6.1 2.8 7.7 4.1 1.6 1.3 2.8 2.7 3.6 4.3.6 1.6 1 3.5 1 5.7zm36.2 13.7h-27.9V84h27.9v6.8h-19.8v13.4h18.6v6.7h-18.6v15.5h19.8v6.9zM157.4 42.8h9.2c4.3 0 7.4.6 9.3 1.9 1.9 1.2 2.9 3.2 2.9 5.9 0 1.8-.5 3.3-1.4 4.5s-2.3 2-4 2.3v.2c2.2.4 3.8 1.2 4.8 2.4s1.5 2.9 1.5 4.9c0 2.8-1 5-2.9 6.6-2 1.6-4.7 2.4-8.1 2.4h-11.2V42.8h-.1zm5.1 12.8h4.9c2.1 0 3.7-.3 4.7-1s1.5-1.8 1.5-3.4c0-1.5-.5-2.5-1.6-3.2s-2.7-1-5-1h-4.4l-.1 8.6zm0 4.2v9.9h5.4c2.1 0 3.7-.4 4.8-1.2 1.1-.8 1.6-2.1 1.6-3.9 0-1.6-.6-2.8-1.7-3.6-1.1-.8-2.8-1.2-5-1.2h-5.1zM200 73.9l-1-3.3h-.2c-1.1 1.4-2.3 2.4-3.4 2.9-1.2.5-2.6.8-4.4.8-2.3 0-4.1-.6-5.4-1.9-1.3-1.2-1.9-3-1.9-5.3 0-2.4.9-4.3 2.7-5.5s4.6-1.9 8.2-2l4.1-.1v-1.3c0-1.5-.4-2.6-1.1-3.4-.7-.7-1.8-1.1-3.3-1.1-1.2 0-2.4.2-3.5.5-1.1.4-2.2.8-3.2 1.3L186 52c1.3-.7 2.7-1.2 4.2-1.5s3-.5 4.3-.5c3 0 5.3.7 6.8 2s2.3 3.4 2.3 6.2v15.9H200v-.2zm-7.5-3.4c1.8 0 3.3-.5 4.4-1.5 1.1-1 1.7-2.4 1.7-4.3v-2l-3 .1c-2.4.1-4.1.5-5.1 1.2-1.1.7-1.6 1.8-1.6 3.2 0 1.1.3 1.9.9 2.4.6.6 1.5.9 2.7.9zm38.4 3.4h-5V59.4c0-1.8-.4-3.2-1.1-4.1-.7-.9-1.9-1.3-3.5-1.3-2.1 0-3.7.6-4.6 1.9-1 1.3-1.5 3.3-1.5 6.3v11.7h-5V50.4h3.9l.7 3.1h.3c.7-1.1 1.7-2 3-2.6s2.8-.9 4.3-.9c5.7 0 8.5 2.9 8.5 8.6v15.3zm16 .4c-3.6 0-6.3-1-8.1-3.1-1.9-2.1-2.8-5.1-2.8-9 0-4 1-7 2.9-9.1s4.7-3.2 8.4-3.2c2.5 0 4.7.5 6.7 1.4l-1.5 4c-2.1-.8-3.9-1.2-5.2-1.2-4.1 0-6.1 2.7-6.1 8.1 0 2.6.5 4.6 1.5 6 1 1.3 2.5 2 4.5 2 2.2 0 4.3-.6 6.3-1.7v4.4c-.9.5-1.9.9-2.9 1.1-1 .2-2.3.3-3.7.3zm32.5-12.2c0 3.8-1 6.9-3 9-2 2.2-4.7 3.2-8.2 3.2-2.2 0-4.1-.5-5.8-1.5-1.7-1-3-2.4-3.9-4.3s-1.4-4-1.4-6.5c0-3.8 1-6.8 2.9-8.9 2-2.1 4.7-3.2 8.3-3.2 3.4 0 6.1 1.1 8.1 3.3 2 2.2 3 5.2 3 8.9zm-17.1 0c0 5.4 2 8.2 6 8.2s6-2.7 6-8.2c0-5.4-2-8.1-6-8.1-2.1 0-3.6.7-4.6 2.1-.9 1.4-1.4 3.4-1.4 6z"/></svg>