<svg xmlns="http://www.w3.org/2000/svg" viewBox="0 0 600 260" role="img" aria-labelledby="title desc">
  <title id="title">Procesadoras regionales</title>
  <desc id="desc">Icono de red regional de procesamiento de pagos.</desc>
  <defs>
    <linearGradient id="lineGrad" x1="0" y1="0" x2="1" y2="1">
      <stop offset="0%" stop-color="#004f95" />
      <stop offset="100%" stop-color="#10243e" />
    </linearGradient>
    <linearGradient id="nodeGrad" x1="0" y1="0" x2="0" y2="1">
      <stop offset="0%" stop-color="#2f6ca6" />
      <stop offset="100%" stop-color="#004f95" />
    </linearGradient>
  </defs>

  <g fill="none" stroke="url(#lineGrad)" stroke-width="10" stroke-linecap="round" opacity="0.95">
    <path d="M80 70 L240 130 L80 190" />
    <path d="M520 70 L360 130 L520 190" />
    <path d="M80 70 L520 70" opacity="0.6" />
    <path d="M80 190 L520 190" opacity="0.6" />
    <path d="M240 130 L360 130" />
  </g>

  <g fill="url(#nodeGrad)">
    <circle cx="80" cy="70" r="28" />
    <circle cx="80" cy="190" r="28" />
    <circle cx="520" cy="70" r="28" />
    <circle cx="520" cy="190" r="28" />
    <circle cx="240" cy="130" r="26" />
    <circle cx="360" cy="130" r="26" />
  </g>

  <g transform="translate(300 130)">
    <rect x="-82" y="-52" width="164" height="104" rx="18" fill="#10243e" />
    <rect x="-64" y="-28" width="128" height="56" rx="10" fill="#eaf3ff" />
    <rect x="-38" y="-8" width="76" height="16" rx="4" fill="#004f95" />
  </g>
</svg>
